<?xml version="1.0" encoding="utf-8"?>
<!-- Generator: Adobe Illustrator 25.0.1, SVG Export Plug-In . SVG Version: 6.00 Build 0)  -->
<svg version="1.0" id="katman_1" xmlns="http://www.w3.org/2000/svg" xmlns:xlink="http://www.w3.org/1999/xlink" x="0px" y="0px"
	 viewBox="0 0 800 600" style="enable-background:new 0 0 800 600;" xml:space="preserve">
<path d="M492.1,307.5c0,4-2.6,7-7.9,9l-0.4-0.9l-1-0.1l-4.1,0.9c-3.2-0.8-4.9-2-5.1-3.8l-0.1-0.9l1-0.9l-0.4-28.5
	c0-1.2,3.6-1.4,10.7-0.6v-0.9l-1-1h1l2.4,3.8l2.5,0.9l2.7,3.9L492.1,307.5z M459.7,266.3c-0.1,0-0.4,0-0.5,0c0.1-0.5,0.4-1,0.5-1.5
	c0.1,0,0.2,0,0.3,0.1C459.8,265.4,459.8,265.9,459.7,266.3L459.7,266.3z M458.9,272.5c0.1-0.3,0.2-0.6,0.4-0.9
	C459.6,272,459.6,272,458.9,272.5L458.9,272.5z M459.3,261.7c0.3,0.1,0.6,0.2,1.1,0.3c-0.2,0.2-0.4,0.3-0.5,0.4
	c-0.4-0.1-0.7-0.2-1-0.3C458.8,261.7,458.8,261.6,459.3,261.7L459.3,261.7z M456.1,268.8c-0.1,0.1-0.5,0-0.9,0.2
	c0.2-0.6,0.5-0.8,1.8-0.8C456.7,268.3,456.5,268.6,456.1,268.8L456.1,268.8z M453.4,269.4c0-0.1,0-0.1-0.1-0.2
	c0.4-0.1,0.7-0.6,1.3-0.1C454.3,269.2,453.8,269.3,453.4,269.4L453.4,269.4z M460.9,258.8c0.1-0.1,0.3-0.1,0.5-0.2
	c0.1,0.1,0.1,0.1,0.1,0.2c-0.1,0.2-0.2,0.4-0.4,0.7c-0.1,0-0.3,0-0.5-0.1C460.9,259.2,460.8,258.9,460.9,258.8L460.9,258.8z
	 M463.2,259.6c0,0.1,0,0.1,0,0.2c-0.4,0.2-0.8,0.4-1.3,0.6c0-0.4,0-0.7,0-1.1C462.4,259.4,462.8,259.5,463.2,259.6L463.2,259.6z
	 M514.3,276.6c-0.9-1.8-1.4-2.7-1.5-2.8c-3.4-6.8-12.5-12.2-27.2-16v1h-1l-1.1-1l-16.6,0c-0.6,0.5-1,1.4-0.8,1.6
	c-0.3,0.6-0.7,1.1-0.9,1.6c-0.3,0.5-0.5,1.1-0.8,1.6c-0.5,1-1,1.9-1.4,2.9c-0.2,0.4-0.9,0.9-1.1,1.4c-0.1,0.2-0.1,0.5-0.1,0.7
	c-0.4-0.1-0.5,0.2-0.6,0.5c-0.3,0.8-0.7,1.6-1.1,2.4c-0.1-0.1-0.2-0.2-0.1-0.2c0.1-0.4,0.3-0.9,0.4-1.3c0.1-0.1,0-0.3,0-0.6
	c0.7-0.5,1-1.4,1.4-2.2c0.7-1.4,1.3-2.8,2-4.2c0.4-0.8,0.6-1.7,1-2.6c-0.3,0-0.4,0-0.5,0c0.6-0.4,1.3-0.7,1.5-1.5
	c-0.3,0-0.5-0.1-0.8-0.1l-5.8,0L458,258c0.2,0.1,0.5-0.2,0.8,0c-0.1,0.2-0.2,0.4-0.3,0.5c-0.4-0.1-0.8-0.2-1.3-0.3c0,0,0,0,0,0
	l-4.5,1.4l-2-1.9l-0.9,0.7h-1l1,2.8v1l-0.9,0.9l0.9,8.3l-1,6.6l1.3,1.9l-0.4,0.9l-0.5,2l0.4,1.9l0,0l0,1l1,3.8l-1,3.7l-0.1,24.2
	l-0.1-0.1v5.5v2.5l0.7,2.2l0.4,2.1l0.1,0.9l-1,0.9l0.9,3.8v2.8l1-0.1l1.1,1l-0.1,0.9l3.1-0.9l6,0.9l1.1-0.1l2-1.9l2,1.9l5.1-0.9
	l2,0.9l12-0.2h3.1l1.1-0.9v0.9l10.7-4.5v-0.8l0.7-0.5l0.3,0.3c13.2-7.8,18.2-23.3,15-46.4C517.2,284.3,516.3,280.6,514.3,276.6
	L514.3,276.6z M137.3,332c0-0.1,0-0.2-0.1-0.3c-0.1-0.2-0.2-0.4-0.3-0.4c-0.9-0.1-0.7-0.9-0.9-1.5c0.6,0.3,1.1,0.5,1.6,0.8
	c0.1,0,0.2,0.2,0.1,0.3C137.7,331.2,137.6,331.5,137.3,332L137.3,332z M135,330.3c0,0-0.1-0.1-0.1-0.1c0.1-0.3,0.2-0.6,0.3-0.9
	c0.3,0.2,0.5,0.4,0.7,0.6C135.6,330,135.3,330.1,135,330.3L135,330.3z M134.4,325.9c-0.1-0.1-0.2-0.3-0.2-0.4c0-0.1,0.1-0.3,0.2-0.4
	c0.1,0,0.1,0,0.2,0c0.1,0.1,0.2,0.3,0.1,0.4C134.7,325.6,134.6,325.7,134.4,325.9L134.4,325.9z M133.7,333.5h-1
	c-0.1-0.1-0.2-0.3-0.3-0.3c-0.7,0-0.9-0.6-1.1-1.1c0,0,0,0,0,0l0,0v0h-0.9c0.2,0.2,0.3,0.3,0.6,0.5c-0.3,0.1-0.6,0.2-0.6,0.1
	c-0.2-0.2-0.2-0.5-0.3-0.8c0,0,0.3-0.2,0.5-0.2c0.3-0.1,0.8-0.3,0.8,0.4h0c0,0,0,0,0,0h0c0,0,0,0,0,0c0.7,0.4,0.9-0.5,1.4-0.6
	c-0.1,0.4-0.4,0.8-0.3,1c0.3,0.5,0.9,0.6,1.6,0.3C133.8,333.1,133.7,333.3,133.7,333.5L133.7,333.5z M126.6,330.9
	c-0.5,0.3-0.7-0.9-1.4-0.2v-0.9c0.7,0.3,1.3,0.5,1.9,0.8C126.9,330.7,126.7,330.8,126.6,330.9L126.6,330.9z M125.9,332
	c-0.3-0.1-0.6-0.2-0.8-0.2c-0.4,0-0.6-0.3-0.6-0.6c0-0.1,0.4-0.3,0.6-0.4c0.2-0.1,0.4,0,0.7,0c-0.3,0.1-0.5,0.2-0.8,0.4
	c0.4,0.1,0.7,0.2,1,0.3C125.9,331.6,125.9,331.9,125.9,332L125.9,332z M125.4,333.6c0-0.1,0-0.2,0-0.4c0.1,0,0.2,0,0.4,0
	c0,0.1,0.1,0.3,0.1,0.4C125.9,333.6,125.4,333.6,125.4,333.6z M131,321.3c0.1,0,0.1,0,0.2,0c0,0.3,0.1,0.5,0.1,0.8
	C130.7,322,130.7,322,131,321.3L131,321.3z M133.4,329.4c-0.2,0-0.5,0-0.6-0.2c-0.4-0.5-0.7-1-0.2-1.8c0.2,0.2,0.3,0.4,0.4,0.6
	c0.1,0.3,0.3,0.6,0.4,0.8C133.4,329.1,133.4,329.3,133.4,329.4L133.4,329.4z M133.5,320.6c-0.3,0-0.6-0.1-1.1-0.1
	c0.2,0.2,0.2,0.4,0.3,0.5c0,0-0.1,0.1-0.1,0.1c-0.3-0.2-0.6-0.5-1-0.8C132.3,320.4,133,319.7,133.5,320.6L133.5,320.6z M161,289.4
	c-13.6-2.7-20.4-5.3-20.4-7.8c0-1.3,2.6-2.4,8-3.5c10.4,1.7,18.3,4.3,23.8,7.8h1.2v-20.7c-6.7-5.2-16.5-7.8-29.5-7.8
	c-13,0-22.5,6-28.4,18.1v7.8c0,9.1,4.9,16.6,14.7,22.4c16.6,4.4,25,7.8,25,10.4c-1.8,1.7-4.1,2.6-6.8,2.6h-4.6
	c-5.5,0-13.8-2.6-25-7.8h-1.1l1.1,3.5v0.9l-1.1,0.9l1.1,0.8l-1,3.2c-0.2-0.1-0.4-0.2-0.6-0.2c0.2,0.9-0.6,0.4-0.8,0.7
	c0.3,0.1,0.6,0.2,0.9,0.2c0.3,0,0.4,0.1,0.3,0.4c-0.1,0.3-0.1,0.5,0.1,0.7c0.1,0.1,0.1,0.2,0.1,0.3c0,0.2,0.1,0.4,0.1,0.6
	c-0.4,0.1-0.8,0.1-1.1,0c0,0.1,0,0.1,0,0.2c0.2,0.1,0.5,0.1,0.7,0.2c0,0.2,0,0.3,0,0.5c0.5-0.2,0.9,0.1,1.1,0.5
	c0.1,0.2,0.2,0.3,0.3,0.3v1.6c-0.1-0.1-0.2-0.2-0.3-0.4c0,0-0.1-0.1-0.2-0.1c-0.7,0-0.9-0.6-1.5-0.9c0.3-0.1,0.4-0.1,0.5-0.1
	c-0.3-0.2-0.6-0.4-0.8-0.6c-0.2-0.2-0.4-0.3-0.7-0.2c-0.2,0.1-1.1-0.4-1-0.7c0.1-0.4-0.2-0.3-0.4-0.4c-0.2,0-0.4,0-0.6,0.1
	c0.6,0.5,1.2,1,1.8,1.6c-0.3,0.2-0.3,0.3,0,0.5c0.6,0.4,1.2,0.9,1.8,1.3c0.4,0.3,0.8,0.6,1.2,0.8c0,0,0,0.1,0,0.1
	c-0.2-0.1-0.4-0.1-0.7-0.2c0.1,0.2,0.2,0.4,0.4,0.5c0,0-0.1,0.1-0.1,0.1c-0.1-0.1-0.3-0.2-0.4-0.3c-0.1-0.1-0.2-0.2-0.3-0.2
	c-0.4-0.1-0.8-0.1-1.2-0.2c-0.2,0-0.4-0.1-0.5-0.1l-0.1,0.2c0.4,0.1,0.7,0.3,1,0.4c0.1,0.1,0.3,0.1,0.4,0.2c0.2,0.1,0.3,0.2,0.5,0.3
	c0.2,0.1,0.4,0.2,0.5,0.4c0.1,0.1,0.4-0.3,0.5,0.2c-0.2,0.1-0.5,0.2-0.7,0.3c0.2,0.2,0.3,0.6,0.6,0.7l-0.7,0.6c0,0,0,0,0,0
	c-0.6-0.2-1.6-0.9-1.6-1.5c-0.6,0.1-0.9-0.3-1-0.7c-0.1,0.1-0.2,0.2-0.3,0.3c0.5,0.4,1,0.9,1.4,1.3c0.3,0.2,0.7,0.4,0.6,0.9
	c0.4,0,0.8,0.2,0.7,0.7c0,0.1,0.1,0.2,0.2,0.3c0.1,0.1,0.3,0.2,0.4,0.3c0.1,0.1,0.2,0.3,0.2,0.4c0,0,0,0.1-0.1,0.1h0.1
	c1.9,2.7,7.7,5.2,17.4,7.4l8.3,1.7h14.4c15.1-6.3,22.7-13.5,22.7-21.6h-1.1l1.1-2.6C181.4,305.6,174.6,296.4,161,289.4L161,289.4z
	 M412.2,307.5c0,4-2.6,7-7.9,9l-0.4-0.9l-1-0.1l-4.1,0.9c-3.2-0.8-4.9-2-5.1-3.8l-0.1-0.9l1-0.9l-0.4-28.5c0-1.1,3.1-1.3,9.1-0.7
	l1.8,0.6c0,0,1,0.3,1.7,0.6l0.6,0.9l2.5,0.9l2.6,3.9L412.2,307.5z M409.4,335l-1,0.9l-2-1.9h3.1V335z M396.7,330.4h-1v-2.8h2
	L396.7,330.4z M385.4,322.4c-0.1-0.1-0.2-0.1-0.3-0.2c0.3-1.2,1.5-1.7,2-2.7c0.1,0.1,0.1,0.1,0.2,0.2
	C386.7,320.6,386.1,321.5,385.4,322.4L385.4,322.4z M382.4,326.5c-0.1-1.3,0-1.4,0.9-2c0.4-0.2,0.6-0.7,0.9-1
	c0.2-0.2,0.4-0.5,0.6-0.7c0.1,0.1,0.1,0.1,0.2,0.2C384.1,324.1,383.3,325.2,382.4,326.5L382.4,326.5z M383.7,257.4
	c-0.1,0.1-0.2,0.3-0.3,0.4h-0.1c0-0.2-0.1-0.4-0.1-0.6C383.3,257.3,383.5,257.3,383.7,257.4L383.7,257.4z M381.5,334.2
	c-0.2,0.4-0.5,0.7-0.8,1.1c-0.1-0.1-0.3-0.2-0.4-0.2c0.3-0.5,0.5-0.9,0.8-1.4c0,0,0.3,0,0.3,0.1
	C381.5,333.9,381.6,334.2,381.5,334.2L381.5,334.2z M377.6,330.5c-0.4,0.6-0.7,1.3-1.1,1.9c-0.4,0.5-0.9,1-1.4,1.7
	c0-0.9,1.2-1.3,0.1-2.3c0.4,0.1,0.6,0.1,1.1,0.1c-0.4-0.4-0.6-0.7-0.9-1c0.1,0,0.4-0.2,0.5-0.1c0.8,0.5,1-0.1,1.3-0.5
	c0.4-0.6,0.8-1.2,1.2-1.7c0.1,0.1,0.2,0.2,0.4,0.3C378.3,329.3,377.9,329.9,377.6,330.5L377.6,330.5z M376.7,258.2
	c0,0.1-0.1,0.1-0.1,0.2c-0.1,0-0.2-0.1-0.3-0.1c0,0,0,0,0,0c0-0.1-0.1-0.3-0.1-0.4C376.4,258,376.5,258.1,376.7,258.2L376.7,258.2z
	 M374.5,257.5c0.1,0,0.2-0.1,0.2-0.1c0.2,0.3,0.4,0.3,0.6,0.1c-0.1-0.2-0.1-0.4-0.2-0.5c0.4,0,0.6-0.1,0.9-0.1c0-0.2,0-0.3,0.1-0.4
	c0,0,0.2,0,0.2,0c0,0,0.1,0.1,0.1,0.1c-0.1,0.1-0.2,0.1-0.2,0.2c0,0.1,0.1,0.2,0.1,0.2c0.4,0,0.7,0,1,0.1c0,0,0,0.1,0,0.1
	c0,0,0.1-0.1,0.1-0.1c0,0.1,0.1,0.2,0.1,0.2c-0.1,0-0.2,0.1-0.3,0.1c0,0-0.1-0.1-0.1-0.1c0,0-0.1,0.1-0.1,0.1c0,0,0,0,0.1,0.1
	c-0.2,0-0.3-0.1-0.4-0.2c-0.7-0.4-0.8-0.4-0.9,0.4c0.1,0.1,0.2,0.1,0.3,0.1c0,0.1-0.1,0.1-0.1,0.2c-0.3-0.1-0.6-0.2-0.9-0.3
	c0,0.1,0,0.1-0.1,0.2C374.9,257.9,374.7,257.7,374.5,257.5L374.5,257.5z M377.1,256.6c0.1,0.1,0.2,0.2,0.3,0.3
	c-0.1,0.1-0.3,0.1-0.4,0.2C377.1,256.9,377.1,256.7,377.1,256.6L377.1,256.6z M373.9,259.4l-0.2,0.1c0-0.1,0-0.2,0-0.3
	c-0.3,0.7-0.5-0.1-0.8,0.1c0-0.2,0-0.4-0.1-0.6c0.3-0.2,0.6,0.1,0.9,0.2c0.1-0.2,0.1-0.3,0.2-0.5c0.1,0.2,0,0.5-0.1,0.8
	C373.9,259.1,373.9,259.2,373.9,259.4L373.9,259.4z M372.2,336c0.3-0.5,0.6-1.1,1-1.6c0,0,0.3,0.1,0.4,0.1
	C373.5,335.6,372.9,336.1,372.2,336L372.2,336z M372.2,258.9c0,0.1-0.1,0.2-0.2,0.2c-0.1-0.2-0.1-0.3-0.2-0.5c0.1,0,0.2,0,0.4,0.1
	C372.2,258.8,372.2,258.9,372.2,258.9L372.2,258.9z M372.5,258.8c0.4,0.2,0.4,0.4,0.2,0.7l-0.4-0.1c0.2-0.1,0.3-0.2,0.2-0.3
	C372.5,259,372.5,258.9,372.5,258.8L372.5,258.8z M371.7,258.5c-0.5-0.2-0.4-0.6-0.5-1c0.2-0.1,0.3-0.2,0.6-0.3
	C371.7,257.7,371.7,258,371.7,258.5L371.7,258.5z M434.4,276.6c-0.9-1.8-1.4-2.7-1.5-2.8c-3.4-6.8-12.5-12.2-27.2-16v0.4l-2-0.3
	l-0.1-0.1h-0.3l-0.1,0l0,0l-13.7,0c0,0,0.1-0.1,0.1-0.1c-0.1-0.1-0.2-0.2-0.2-0.1c-0.2,0.1-0.5,0.1-0.7,0.2c0.2-0.4-0.3-0.3-0.4-0.5
	c0.1,0,0.1-0.1,0.2-0.1c-0.1-0.1-0.1-0.2-0.3-0.5c-0.1,0.2-0.2,0.3-0.3,0.5c-0.1-0.1-0.2-0.1-0.3-0.1c0-0.2,0-0.4,0-0.6
	c0,0-0.1,0-0.1,0c0,0.3,0,0.5,0,0.8c-0.2,0-0.4-0.5-0.4-0.8c0.1,0,0.2,0,0.3,0c0,0,0-0.1,0.1-0.1c-0.1-0.1-0.2-0.2-0.3-0.2
	c-0.1-0.1-0.2-0.1-0.2-0.2c-0.1-0.1-0.1-0.2-0.2-0.3c-0.1,0.1-0.2,0.1-0.3,0.2c0,0-0.1,0-0.1,0c0-0.1,0-0.2,0.1-0.3
	c0.1-0.2,0.2-0.4,0.2-0.6c0,0-0.1-0.1-0.1-0.2c-0.2-0.1-0.3-0.2-0.5-0.3c-0.1,0.3,0.1,0.4,0.4,0.4c-0.4,0.1-0.8,0.2-1.1,0.3
	c0,0-0.1-0.1-0.1-0.1c0,0-0.1,0.1-0.1,0.1c0.1,0.1,0.2,0.3,0.3,0.3c0,0.3,0.1,0.6,0.1,0.8c-0.2,0-0.4,0-0.5,0c0,0.2,0,0.3,0.1,0.5
	c0,0-0.1,0-0.1,0c0-0.1-0.1-0.3-0.1-0.3c-0.1-0.1-0.3-0.3-0.4-0.3c-0.3,0.1-0.3-0.1-0.3-0.3c0-0.1-0.1-0.2-0.1-0.3
	c-0.1,0.2-0.3,0.5-0.5,0.7c-0.1-0.2-0.1-0.3-0.2-0.4c-0.1,0-0.2,0-0.1,0c-0.3-0.3-0.6-0.6-0.9-0.8c0.1,0,0.2-0.1,0.2-0.1
	c0.2,0.3,0.4,0.3,0.6,0.1c-0.1-0.2-0.1-0.4-0.2-0.5c0.4,0,0.6-0.1,0.9-0.1c0-0.2,0-0.3,0.1-0.4c0,0,0.2,0,0.2,0c0,0,0.1,0.1,0.1,0.1
	c-0.1,0.1-0.2,0.1-0.2,0.2c0,0.1,0.1,0.2,0.1,0.2c0.4,0,0.7,0,1.1,0.1c0,0,0,0.1,0,0.1c0.1-0.1,0.2-0.2,0.4-0.3c0,0-0.1,0-0.1,0.1
	c0-0.1-0.1-0.3-0.1-0.4c0,0.1,0,0.1-0.1,0.2c-0.2,0.1-0.3,0.1-0.5,0.2c0-0.2,0.1-0.3,0.1-0.5c-0.5-0.1-1-0.1-1.5-0.2c0,0,0,0,0,0.1
	c0.1,0.1,0.2,0.1,0.2,0.2c-0.3,0-0.5,0-0.6-0.3c-0.1-0.2-0.3-0.3-0.5-0.1c0.1,0.1,0.1,0.1,0.2,0.2c0,0,0,0.1,0,0.1
	c-0.1,0-0.3,0-0.4,0c-0.3-0.2-0.4-0.1-0.6,0.1c0,0.3,0.1,0.5,0,0.8c-0.1,0.1-0.1,0.2,0,0.3c0,0,0,0.1,0,0.2c-0.1,0-0.2,0-0.2-0.1
	c-0.1-0.1-0.2-0.2-0.3-0.4c-0.1,0.5-0.3,0.1-0.6,0.1c0.3-0.1,0.6-0.2,0.8-0.3c0.4-0.2-0.1-0.5,0-0.8c-0.3,0-0.5-0.1-0.8-0.1
	c0.1,0.2,0.1,0.2,0.1,0.4c-0.1,0-0.1,0-0.2,0c-0.1,0.2-0.1,0.5-0.2,0.6c-0.1,0.1-0.4,0.1-0.6,0.1c0,0.1,0,0.2,0,0.3
	c0,0.1,0,0.1,0.1,0.2c0.1,0,0.1-0.1,0.2-0.1c0.3,0.1,0.5,0.3,0.8,0.4c0.3,0,0.7,0,0.7,0.1c0.1,0.2,0,0.5,0,0.8c0.1,0.1,0.1,0.7,0,1
	h-0.1c0-0.3,0-0.6-0.1-1c-0.3,0.7-0.5-0.1-0.8,0.1c0-0.4-0.1-0.7-0.1-1c-0.2,0-0.4,0-0.6,0c0,0.2-0.1,0.5-0.1,0.7
	c0,0.1-0.1,0.2-0.2,0.2c-0.1,0-0.3,0-0.4,0c0,0.1,0,0.2,0,0.3c0,0.1,0,0.1,0,0.2c0.1,0,0.2,0,0.2-0.1c0.1-0.1,0.2-0.2,0.3-0.2
	c0.2,0,0.3-0.2,0.2-0.4c0-0.1,0-0.1,0-0.2c0.4,0.2,0.4,0.4,0.1,0.7c-0.1,0-0.3,0-0.3,0c-0.1,0.1-0.1,0.3-0.2,0.5h-0.6
	c0,0-0.1,0-0.1,0c-0.1,0-0.2,0-0.3-0.1c0.1-0.1,0.1-0.1,0.1-0.2c-0.1-0.3-0.2-0.5-0.6-0.6c-0.1,0-0.2,0-0.3-0.1c0,0-0.1,0-0.1,0
	c0,0,0,0,0,0c-0.2,0-0.3-0.1-0.5-0.2c0,0,0,0,0,0c0,0,0,0,0,0c-0.4-0.2-0.7-0.5-0.7-1.1c0-0.6-1-0.9-1.5-0.4
	c0.5,0.1,0.8,0.2,1.2,0.3c0,0.1,0,0.1-0.1,0.2c-0.2,0-0.5,0-0.8,0.1c0.4,0.3,0.9,0.5,1.3,0.8c-0.5-0.1-0.9-0.1-1.4-0.2l0,0.1
	c0.1,0.1,0.2,0.1,0.2,0.2c-0.3,0-0.5,0-0.6-0.3c-0.1-0.2-0.3-0.3-0.5-0.1c0.1,0.1,0.1,0.1,0.2,0.2c0,0,0,0.1,0,0.1
	c-0.1,0-0.3,0-0.4,0c-0.3-0.2-0.4-0.1-0.6,0.1c0,0.3,0.1,0.5,0,0.8c-0.1,0.1-0.1,0.2,0,0.3c0,0,0,0,0,0c-0.2-0.1-0.4-0.2-0.6-0.3
	c0.1,0,0.2-0.1,0.3-0.1c0.4-0.2-0.1-0.5,0-0.8c-0.3,0-0.5-0.1-0.8-0.1c0.1,0.2,0.1,0.2,0.1,0.4c-0.1,0-0.1,0-0.2,0
	c0,0.1,0,0.2-0.1,0.2c-0.3-0.2-0.5-0.5-0.8-0.7c-0.1,0-0.2,0-0.3,0c0,0.2,0.1,0.4,0.1,0.6c-0.4-0.8-1-0.9-1.9-1
	c0.4-0.1,0.7-0.2,0.9-0.3c0-0.1,0-0.1-0.1-0.2c-0.5,0-0.9,0-1.4,0c-0.1,0.4-0.3,0.9-0.5,1.4c1,0.5,1.3,0.5,1.8-0.3
	c0.2,0.1,0.4,0.3,0.5,0.3c0,0.3,0,0.5,0,0.7l0,0c-0.4,0.8-0.4,0.8,0.5,1.6c0,0,0,0,0.1,0.1c0,0-0.1,0-0.1,0c0,0,0,0,0,0l-1.6-0.6h-1
	l1,2.8v1l-0.9,0.9l0.9,8.3l-0.8,4.7c-0.1,1.1-0.1,2.2,0.5,3c0,0.1,0.1,0.1,0.1,0.2l0.4,0.7l-0.7,1.5l0.2,1.4l0,0l0.1,2.8l1,3.8
	l-1.1,3.7l-0.1,27l0.8,0.7c0-0.2,0-0.3-0.1-0.5c0,0,0.1,0,0.1,0c0.4,0.7,0.8,1.4,1.2,2.1c-0.4-0.1-0.7-0.1-1-0.2
	c0-0.3-0.1-0.6-0.1-1l-0.8,0.7v1.9l1,5.6l0.1,0.9l-1,0.9l0.9,3.8v2.8l1.1-0.1l0.7,0.6c0.3-0.7,0.7-1.4,1.1-2.1
	c0.7,0.6,1,0.4,1.2-0.3c0.1-0.4,0.6-0.7,0.9-1.1c0.8-1,1.6-2,2.2-3c0.4-0.6,0.4-1.3,0.7-2c1.1,0.3,1.3-0.8,2.2-1.2l-1.2,2.2
	c0.1,0.1,0.2,0.2,0.3,0.3c0.5-0.5,1-0.6,1.4,0.3c-0.4,0-0.8,0-1.2,0.1c-0.3,0.1-0.5,0.3-0.8,0.4c-0.4,0.1-0.3,0.9-1.1,0.4
	c0,0-0.2,0.1-0.3,0.2c-1.3,1.7-2.6,3.4-3.9,5c-0.3,0.4-0.8,0.7-1.2,1.1l-0.1,0.9l3.1-0.9l6,0.9l1.1-0.1l2-1.9l2,1.9l5.1-0.9l2,0.9
	l12-0.2h3.1l1.1-0.9v0.9l10.7-4.5v-0.9h-3l-0.1-1h3l1,0.9c13.2-7.8,18.2-23.3,15-46.4C437.3,284.3,436.4,280.6,434.4,276.6
	L434.4,276.6z M331.4,291.2c-0.1,0-0.1,0-0.2,0c-0.1-0.2-0.2-0.4-0.3-0.6h0.5V291.2z M329.4,285.8l-0.3,1.3c0,0,0-0.1,0-0.1
	c-0.2,0.1-0.4,0.1-0.5,0.2c-0.2,0.2-0.4,0.4-0.6,0.6c-0.1,0.1-0.1,0.3-0.1,0.5c0.2,0,0.4,0.1,0.5,0.1c0.1,0.1,0.3,0.1,0.4,0.1
	l-0.4,2v0.1c0,0,0,0.1-0.1,0.1c-0.1,0.1-0.2,0.3-0.3,0.4c0,0,0.1,0,0.1,0c0,0.2-0.1,0.4-0.1,0.7c0.1,0,0.3-0.1,0.5,0
	c0.3,0.1,0.3,1.1-0.1,1.3c0-0.1,0-0.3,0-0.4c-0.4,0.2-0.6,0.7-0.6,1.1c0,0.3-0.2,0.5-0.4,0.8c-0.4-0.2-0.4,0.3-0.7,0.4
	c0.3,0,0.7,0,1,0c0.2,0,0.4,0,0.6,0.1v0c-0.1,0.1-0.1,0.3-0.2,0.4c0,0.1,0.1,0.2,0.1,0.3c0,0-0.1,0.1-0.1,0.1c0-0.1-0.1-0.2-0.1-0.2
	c-0.1-0.1-0.1-0.1-0.2-0.1c-0.5,0.1-0.9,0.2-1.4,0.3c0,0.1,0,0.1,0,0.2c0.3,0.1,0.6,0.2,0.8,0.2c0,0,0.1-0.2,0.2-0.4
	c0.1,0.1,0.2,0.2,0.2,0.4c0,0.1-0.2,0.2-0.3,0.2c-0.1,0.1-0.3,0.2-0.4,0.3c-0.2,0.1-0.5,0.1-0.6,0.3c-0.4,0.5,0.5,0.4,0.4,0.7
	c-0.3,0.2-0.5,0.4-0.8,0.7c0.1,0.4,0.8,0.4,0.5,0.9c0.2,0.1,0.5,0.2,0.7,0.3c0.1-0.4,0.2-0.8,0.3-1.2c0.1-0.2,0.3-0.5,0.4-0.4
	c0.4,0.1,0.5-0.2,0.5-0.6c0,0,0,0,0,0v14.4c-2.5,5.8-5.3,8.6-8.4,8.6h-6.5c-3.4,0-5.9-5.4-7.5-16.3l0.9-0.9l-1.9-9.5l0.9-1v-2.8
	l-0.9,0.9h-0.9l1.9-2.8v-4.8l-0.9-4.9h0.9l0.7-0.7l14.7-0.3h5.2l0.7-0.1l0.6,0c-0.2,0.1-0.2,0.1-0.2,0.2l0.2,0.2h-0.1
	c-0.1,0-0.2,0.2-0.3,0.5v0.1l0.1,0.5c0,0,0.5,0.1,1.5,0.1l-0.6,0.6v1.9l1,0.9h-1L329.4,285.8z M328.4,297.1
	c-0.4-0.1-0.6-0.1-0.9-0.2c0-0.1,0-0.3,0.1-0.3c0.1-0.1,0.3-0.1,0.4-0.1c0.1,0.1,0.2,0.3,0.4,0.5V297.1z M262.9,268.1
	c-0.1,0.2-0.3,0.3-0.4,0.5c0,0-0.1-0.1-0.1-0.1c0-0.1,0-0.2,0.1-0.3c0,0,0,0,0,0v0c-0.2,0.1-0.3,0.1-0.6,0.2c0,0,0-0.1-0.1-0.3
	c-0.2,0.1-0.3,0.3-0.5,0.4c0,0-0.1,0-0.1-0.1c0.1-0.1,0.1-0.2,0.2-0.3c0.1-0.1,0.2-0.2,0.4-0.3c0.2-0.1,0.3-0.1,0.5-0.2
	c0,0.2,0.1,0.3,0.1,0.5c0,0,0,0,0,0l0,0l0,0c0.1-0.1,0.2-0.2,0.3-0.3c0.1-0.2,0.2-0.4,0.3-0.6c0.1,0,0.1,0.1,0.2,0.1
	C263.1,267.6,263,267.8,262.9,268.1L262.9,268.1z M260.7,270.1c0-0.1-0.1-0.1-0.1-0.2c0.4-0.3,0.7-0.7,1.1-1
	c0.1,0.1,0.1,0.1,0.2,0.2C261.5,269.4,261.1,269.8,260.7,270.1L260.7,270.1z M261.4,272.9c-0.5-0.1-0.9-0.2-1.4-0.3
	c-0.2,0-0.2,0-0.3,0.2c0,0.1-0.1,0.1-0.2,0.1c-0.2-0.1-0.4-0.3-0.7-0.5c-0.2-0.1-0.5-0.1-0.7-0.2c0,0,0-0.2,0.1-0.3
	c0.2,0,0.5,0.1,0.7,0.1c0.1-0.1,0.3-0.3,0.6-0.5c-0.1,0.2-0.1,0.4-0.2,0.5c0.5,0.3,1.3,0.3,1.6,0c0.2,0.1,0.4,0.1,0.6,0.2
	C261.5,272.4,261.5,272.6,261.4,272.9L261.4,272.9z M257.3,269.1c0.2-0.2,0.4-0.4,0.7-0.6C258,269.1,257.7,269.2,257.3,269.1
	L257.3,269.1z M256.8,265.8c0,0-0.1,0-0.1,0.1c-0.2-0.3-0.4-0.6-0.7-1c0.4-0.2,0.6,0,0.8,0.2C256.9,265.2,256.8,265.5,256.8,265.8
	L256.8,265.8z M255.8,271.1c-0.1,0.1-0.3,0.1-0.4,0.1c-0.1-0.1-0.2-0.3-0.3-0.4c-0.2-0.2-0.4-0.4-0.6,0c-0.1,0.1-0.2,0.2-0.4,0.3
	c0.1-0.2,0.2-0.4,0.3-0.6c0.1-0.2,0-0.4,0-0.5c0.2,0,0.4,0,0.5,0c0.1,0,0.2,0,0.2,0.1c0.2,0.2,0.3,0.5,0.5,0.7
	c0.1,0,0.3-0.1,0.5-0.2C255.9,270.9,255.9,271.1,255.8,271.1L255.8,271.1z M254.6,276.6c0-0.1,0-0.1,0-0.2c0.3,0.1,0.5,0.2,0.8,0.3
	L254.6,276.6z M252.1,272.5c0-0.3,0-0.4,0-0.6c-0.2-0.1-0.4-0.1-0.5-0.2c0-0.1,0-0.1,0.1-0.2c0.3,0.1,0.6,0.2,1,0.3
	C252.4,272,252.2,272.2,252.1,272.5L252.1,272.5z M251.3,273c-0.1,0.2-0.2,0.5-0.4,0.8c0,0-0.1,0-0.3-0.9c0.1,0.1,0.2,0.2,0.3,0.2
	c0.3-0.1,0.5-0.3,0.7-0.4l0.1,0.3C251.6,273,251.5,273,251.3,273L251.3,273z M250.4,272c0.1-0.3,0.1-0.7,0.2-1
	c0.4,0.1-0.4,0.6,0.3,0.5c-0.1,0.2-0.3,0.4-0.4,0.5C250.4,272.1,250.4,272,250.4,272L250.4,272z M259.4,269.3
	c-0.4-0.1-0.6,0.6-1,0.2C259.1,269,259.1,269,259.4,269.3L259.4,269.3z M260.3,270.7c0,0.1,0.1,0.1,0.1,0.1
	c-0.2,0.2-0.5,0.4-0.7,0.6l-0.1-0.2C259.8,271,260.1,270.9,260.3,270.7L260.3,270.7z M248.6,265.7l0.4-0.6c0.1,0.2,0.2,0.3,0.3,0.5
	C249,265.6,248.8,265.6,248.6,265.7L248.6,265.7z M243,283.2h-1.8v0.8l-1,5.2h-1.8v-1.6l-7,2.1v-0.8l0.9-0.8v-0.2l-16.8,0.5l0.9-0.8
	l-0.9-0.8v-0.8l0.9-0.8l-0.8-7.1h9.6l15.2,0.2l0.7,4.3h1.8L243,283.2L243,283.2z M198.3,345.2c-0.4-0.1-0.4-0.4-0.4-0.7c0,0,0,0,0,0
	c0,0,0,0,0,0c0.1,0,0.3,0.1,0.5,0.1C198.3,344.9,198.3,345,198.3,345.2L198.3,345.2z M197.5,344c0,0,0.1-0.1,0.1-0.1
	c0.2,0.1,0.3,0.2,0.4,0.3c0,0.1,0,0.2,0,0.2C197.8,344.3,197.6,344.2,197.5,344L197.5,344z M195.6,342.4c-0.1-0.1-0.2-0.1-0.3-0.2
	c-0.1-0.1-0.3-0.1-0.4-0.2c0.1-0.1,0.4-0.2,0.4-0.2c0.1,0.1,0.2,0.1,0.3,0.1C195.6,342.2,195.6,342.3,195.6,342.4L195.6,342.4z
	 M366.8,276.6l-0.6-0.5l-1.9,0.6l-4.2,0c0,0,0,0,0,0c-0.1-0.1-0.2-0.2-0.2-0.4l-0.4,0V259h-24.3v8.1l0.9,6.3h0.9l-1.2,1.9l-0.9,0.9
	l-6.8-0.1l-22.9,0.6v0l-2.4-0.4l6.2-0.9h2.8l-0.9-2.7l0.9-2.7v-0.9l-0.9-0.9v-0.9l0.9-0.9l-0.1-0.6l0.1-3.9V259l-0.9-0.9L310,259
	l-0.9-0.9l-0.9,0.9h-1l-0.9-0.9h-13.9l-1-0.9v0.9h-0.9l-0.9-0.9h-2.8l-0.6,1.8v3.6l-0.3,12.9l-6.1,0.4l-0.1,0.5l-9.5-0.1H270l-0.3-6
	v-0.8v-6.3l0.9-5.2h-20l-4.4,0.8l0.9,4.4l-0.9,7.9l0.5,5.4h-2.8v0.1h-3.1c-5.6-0.3-9.7-0.5-12.2-0.7l-6.5-0.4l-0.5-7.6l0.8-7.5v-2.4
	h-0.8l-7.1,0.2l-12-0.2l-3.6,1.6l-0.4,8.3l0.4,8c-0.2,0-0.3,0-0.5,0l-1.9-0.1l-1.1,0.6l-2.7-0.1c-0.8-0.1-1.7-0.1-2.6-0.2
	c-4-0.4-5.9-0.6-5.9-0.5L184,276v0.1c0.1,0.2,0.1,0.3,0.2,0.4l-0.7,0l-0.5,0.7l0.6,0.7l2.2,0.1l6-0.3l0.6,17.3l-0.9,0.8v0.8h0.9
	l-0.9,0.8l0.9,4.1v0.8l-0.3,0.7l0.3,0.9v0.8l-0.9,0.8l0.9,0.8v0.8l-0.9,0.8v0.8l0.9,4.9v1.6l-0.4,0.9l0.4,0.7v2.4l-0.2,1l0.2,0.7
	v13.7l0.6,0.6c0,0.1,0,0.1,0.1,0.2c0,0.1,0.1,0.1,0.1,0.2l-0.8,0.7v3.2h0.4c-0.1,0.4-0.2,0.8-0.3,1.2c-0.2,0.5-0.4,1-0.6,1.6
	c-0.1,0.3,0,0.5,0.4,0.5c0.1,0,0.2,0.1,0.3,0.2c-0.1,0.1-0.1,0.2-0.2,0.3c-0.1,0.1-0.2,0-0.2,0.1c-0.1,0.2-0.2,0.4-0.3,0.6
	c0.2,0.1,0.3,0.2,0.5,0.2c0.3,0,0.6,0,0.9-0.1c0.2-0.1,0.3-0.2,0.4-0.3c-0.1-0.1-0.3-0.3-0.3-0.4c-0.2-0.3-0.5-0.6-0.4-0.8
	c0.1-0.1,0.1-0.3,0.2-0.5c0.2,0,0.3,0,0.4,0.1c0.1,0.1,0,0.3-0.2,0.4c0.2,0.2,0.3,0.3,0.6,0.5c0.1-0.1,0.2-0.3,0.4-0.4
	c0.1,0,0.1,0,0.2,0c0.2-0.1,0.4,0.1,0.6,0.1c0.1,0,0.2,0,0.3,0c0,0.1,0,0.1,0,0.2c0,0.1,0,0.2,0,0.3c0.1,0,0.3,0,0.4,0
	c0.1-0.1,0.2-0.2,0.3-0.4c0.1,0.1,0.1,0.2,0.2,0.3c0,0.1,0,0.3,0,0.4c-0.1,0.6-0.1,1.3-0.5,1.7c-0.4,0.5,0,0.7,0,1
	c0.3-0.7,0.6-1.4,0.8-2c0.2,0.1,0.3,0.1,0.5,0.1c0,0,0,0.1,0,0.1c0.2,0.1,0.4,0.1,0.7,0.2c0,0,0,0,0,0v0c-0.3,0.5-0.3,0.6,0.3,1.1
	c0.1,0.1,0.2,0.1,0.3,0.2c-0.1-0.2-0.1-0.3-0.2-0.4c0.2,0,0.4,0.1,0.5,0.1c0.3-0.3,0.6-0.1,0.7,0c0-0.1,0.1-0.2,0.1-0.3
	c0.4,0.1,0.8,0.3,1.2,0.4c-0.2,0-0.3,0.1-0.5,0.1c0.4,0.2,0.8,0.4,1.2,0.6c0.1,0,0.2-0.1,0.4-0.1c0.1,0,0.2,0,0.3,0c0,0,0,0,0.1,0
	c0,0,0,0,0-0.1c0,0,0.1-0.1,0.1-0.1c0.2-0.2,1-0.4,0.5-0.7c0.1,0,0.1-0.1,0.2-0.1c-0.1,0-0.2-0.1-0.3-0.1c0-0.1,0-0.2,0-0.3
	c0.1-0.1,0.2-0.2,0.2-0.2c-0.1-0.1-0.1-0.2-0.2-0.3c0-0.2,0-0.3,0.4-0.4c0.1,0,0.2-0.3,0.3-0.5c0.1,0,0.3,0,0.4,0
	c-0.2-0.1-0.4-0.2-0.4-0.4c-0.1-0.1-0.1-0.3,0-0.4l0.7-0.3c0.1,0.1,0.1,0.2,0.1,0.3c0,0.1-0.2,0.1-0.3,0.2l1.2-0.3c0,0,0-0.1,0-0.1
	c-0.1,0-0.3,0-0.4,0c0.1-0.1,0.1-0.1,0.2-0.2c0.1,0,0.2,0,0.2,0c0.2,0.3,0.4,0.2,0.7,0c0.2,0,0.3-0.1,0.4-0.4c0,0,0,0,0.1,0.1
	c0.1-0.1,0.2-0.3,0.2-0.4c0,0,0.1,0,0.1,0c0,0.1,0.1,0.3,0.1,0.4c0,0.3,0,0.6,0,0.9c0,0.1,0.1,0.1,0.2,0.1c0.3,0,0.5,0.1,0.8,0.1
	c-0.1-0.4-0.3-0.5-0.8-0.3c0.3-0.2,0.6-0.4,0.9-0.7c0.5-0.1,1-0.1,1.3-0.2c0.2,0.3,0.2,0.6,0.3,0.6c0.3,0,0.4-0.2,0.4-0.5
	c0,0,0-0.1,0-0.1l0.1,0.1c0-0.1-0.1-0.1-0.1-0.1c0.1-0.1,0.2-0.2,0.3-0.2c0.1,0,0.2,0,0.4,0c-0.1,0.1-0.2,0.1-0.3,0.2
	c0.1,0.2,0.1,0.4,0.1,0.5c0,0.1-0.2,0.1-0.3,0.1l1.2,0c0,0,0-0.1,0-0.1c-0.1,0-0.3-0.1-0.4-0.1c0.3-0.2,0.6-0.3,0.9,0.1
	c0.2,0.2,0.5,0.3,0.7-0.1c-0.1-0.1-0.2-0.1-0.4-0.2c0-0.1,0-0.1,0-0.1c0.2-0.1,0.4-0.2,0.6-0.2c0.4,0.1,0.6,0,0.6-0.4
	c0,0.1,0.1,0.1,0.1,0.1c0.2,0,0.3-0.1,0.3-0.2c0,0,0,0,0,0c0.4-0.1,0.7-0.1,1.1-0.2c-0.1-0.1-0.1-0.2-0.2-0.2c0.1,0,0.2-0.1,0.3-0.1
	c0.1-0.1,0.3-0.2,0.4-0.4c0.1-0.2,0.3-0.4,0.4-0.6l0.1,0.2c0.1-0.4,0.1-0.7,0.1-1.1l0.5,0v-1.2c0.1-0.1,0.1-0.2,0.2-0.3
	c0-0.1-0.1-0.1-0.2-0.2v-0.6c0.2-0.2,0.5-0.3,0.7-0.5c-0.1-0.2-0.2-0.4-0.3-0.6h-0.4v-21.6l-0.9-0.8l0.9-3.2h22c1,0,1.9,1.6,2.6,4.9
	h-0.9l2.6,4.1h-0.9l-0.9-0.8l-0.9,0.8v12.1l1.7,2.4l-0.9,0.8h-0.9l0.9,0.8v4.9h8.8l0.9-0.8l0.9,0.8h10.3l1.8-1.6v-3.2l-0.9-0.8v-0.8
	l0.4-0.4l-0.4-0.4l0.9-0.8v-8.9l0.1-0.8l-0.1-0.9v-7.2l-0.9-3.2l0.9-19.4v-3.3l-0.9-5.8l0.9-0.8l-0.5-3.6l1.1-0.1
	c0.1,0,0.7-0.1,1.7-0.1c0,0-0.1,0-0.2,0l4,0.1c0,0,7-0.3,9.4-0.3l-0.4,1.7v9l1.9,8.1l-1.9,3.5l0.9,0.9v10.8l0.9,0.9h-0.9l0.9,4.5
	v7.2l2.8,3.6c4.2,7,12.6,12.1,25.2,15.2v-0.9h0.9l0.9,0.9h14l5.6-1.7v0.9c3.1-0.6,7.7-2.7,14-6.3v-0.9l-0.9-0.9h1.8l0.9,0.9
	c0.3-2.4,1.3-3.6,2.8-3.6l-1-0.9v-0.9l1,0.9h0.9c1.6-5.4,2.8-8.1,3.7-8.1l-0.9-0.9l2.8-10.8l-0.9-0.9v-5.4l0.9-6.3l-1.9-3.6l0.9-0.9
	c0-1.2-0.9-1.7-2.8-1.7v-0.9h1.9l0.9,0.9l0.9-4.5l-1.9-3.6c-0.9,0.2-1-1.4-0.1-4.9c0,0,0,0,0.1,0h1.5v0.1h2.7l7.7,0.6l0.3-0.6
	l-0.2-0.3l0.8,0l0.3-0.4l0.2-0.4l0-0.5L366.8,276.6z M664.7,275.9c-0.1,0-0.2-0.1-0.3-0.1c0,0,0-0.2,0.1-0.2
	c0.4-0.4,0.7-0.8,1.2-1.3c0.1,0.1,0.2,0.2,0.2,0.3C665.9,274.9,665.1,275.8,664.7,275.9L664.7,275.9z M665,277.8l-0.4-0.2
	c0.2-0.3,0.5-0.7,0.7-1l0.3,0.2C665.4,277.2,665.2,277.5,665,277.8L665,277.8z M665.7,285.7c0,0-0.1,0.4-0.1,0.4c-0.2,0-0.5,0-0.7,0
	c-0.3,0-0.7-0.2-0.9-0.2c-0.8,0.3-0.9-0.6-1.5-0.8c0,0,0-0.2,0-0.2c0.3-0.1,0.6-0.2,0.6-0.3c0-0.7,0.5-0.8,1.2-0.8
	c-0.2,0.3-0.3,0.5-0.6,0.9c0.4,0.2,0.9,0.3,1.4,0.5C665.3,285.4,665.5,285.5,665.7,285.7L665.7,285.7z M663.4,281.8
	c-0.1,0.5-0.1,1-0.2,1.5C663,281.8,663,281.8,663.4,281.8L663.4,281.8z M661.8,278.3c0.1-0.3,0.1-0.6,0.2-0.9
	c0.2-0.8,0.1-0.9-0.6-0.8c0-0.8,0.1-1.5,0.1-2.5c0-0.3,0-0.9,0-1.4c0-0.8,0-1.5,0-2.3l0.7,0.1c-0.1,1.3-0.3,2.6,0.8,3.5
	c-0.2,0.4-0.3,0.7-0.5,1c0.1,0.1,0.2,0.1,0.3,0.2c0.4-0.4,0.7-0.7,1.1-1.1c0.1,0.1,0.1,0.1,0.2,0.2c-0.3,0.9-1.3,1.3-2,2.3
	c0.5,0.1,1,0.2,1.5,0.3c-0.1,0.1-0.1,0.3-0.2,0.3c-0.5,0.3-0.5,0.8-0.3,1.2c0.5,0.8,0.1,1.5,0.1,2.3c0,0.2-0.2,0.4-0.3,0.6
	c-0.7-0.8-0.6-1.5-0.6-2.4C662.2,278.6,662,278.5,661.8,278.3L661.8,278.3z M662.1,284.8c-0.4,0-0.7,0-1.1-0.1
	c-0.2,0-0.3-0.3-0.4-0.5c0.2-0.1,0.5-0.3,0.7-0.2c0.3,0.1,0.6,0.4,0.9,0.6C662.1,284.7,662.1,284.8,662.1,284.8L662.1,284.8z
	 M660.1,284.3c-0.2-0.1-0.5-0.1-0.8-0.2c-0.2,0.2-0.3,0.5-0.5,0.8c-0.1,0-0.2-0.1-0.3-0.1c0.1-0.4,0.2-1,0.4-1.1
	c0.4-0.1,0.8,0.2,1.2,0.3C660.2,284.2,660.2,284.2,660.1,284.3L660.1,284.3z M654.2,284.7c0.4-1.1,0.8-1.3,1.6-0.6
	C655.3,284.3,654.8,284.5,654.2,284.7L654.2,284.7z M640.9,288.2l-2.2,5.6c-2,1.2-3.1,2.3-3.4,3.3l-0.3-0.3l-4.6,1.8l-5.4-0.8v-0.9
	l0.7-0.8l-0.1-1.8l-0.8-0.9h0.7l-0.7-0.9c-0.2-8.3,0.1-12.5,0.9-12.5l3.3-0.1C638.1,278.8,642.1,281.6,640.9,288.2L640.9,288.2z
	 M590.8,274.5c0-1.3,0.1-2.6-1.2-3.4c0.1-0.4,0.3-0.7,0.4-1.1c-0.1,0-0.2-0.1-0.3-0.1c-0.3,0.4-0.7,0.8-1,1.2
	c-0.1-0.1-0.1-0.1-0.2-0.2c0.3-0.9,1.2-1.4,1.7-2.4c-0.5-0.1-1-0.1-1.5-0.2c0-0.1,0.1-0.3,0.2-0.4c0.4-0.4,0.5-0.9,0.2-1.2
	c-0.6-0.7-0.2-1.5-0.3-2.3c0-0.2,0.1-0.4,0.2-0.6c0.8,0.7,0.7,1.5,0.8,2.4c0.1,0,0.3,0.2,0.5,0.3c0,0.3,0,0.6-0.1,1
	c-0.1,0.8-0.1,0.9,0.7,0.8c0,0.8,0.1,1.5,0.1,2.5c0,0.3,0.1,0.9,0.1,1.4c0.1,0.8,0.2,1.5,0.3,2.3L590.8,274.5L590.8,274.5z
	 M588.6,261.7c0.5,1.4,0.5,1.4,0,1.5V261.7z M587.5,261.2c0.1-0.3,0.3-0.6,0.5-1c-0.5-0.1-0.9-0.2-1.4-0.4c-0.3-0.1-0.5-0.2-0.7-0.4
	c0,0,0-0.4,0.1-0.4c0.2-0.1,0.5-0.1,0.7,0c0.3,0,0.7,0.2,1,0.1c0.8-0.3,1,0.5,1.5,0.6c0,0,0.1,0.2,0.1,0.2c-0.2,0.1-0.6,0.2-0.6,0.3
	C588.7,261,588.2,261.1,587.5,261.2L587.5,261.2z M586.8,268.3c0.2-0.4,0.4-0.7,0.6-1.1c0.1,0.1,0.3,0.1,0.4,0.2
	c-0.2,0.4-0.4,0.7-0.6,1.1L586.8,268.3z M588,269.5c-0.3,0.5-0.7,0.9-1.1,1.4c-0.1-0.1-0.2-0.1-0.2-0.2c-0.1-0.4,0.6-1.5,1-1.6
	c0.1,0,0.2,0.1,0.3,0.1C588.1,269.3,588.1,269.5,588,269.5L588,269.5z M586,273.7C586,273.7,586,273.7,586,273.7
	c0.1,0.2,0.2,0.4,0.3,0.7c0,0-0.1,0.1-0.1,0.1H585C585.2,274.1,585.4,273.6,586,273.7C586,273.7,586,273.7,586,273.7
	c-0.3-0.3-0.6-0.5-1.1-0.9h1.7c0.1,0.2,0.2,0.5,0.4,1C586.6,273.7,586.3,273.7,586,273.7L586,273.7z M589.6,260c0.4,0,0.7,0,1.1,0
	c0.2,0,0.3,0.3,0.4,0.4c-0.2,0.1-0.5,0.4-0.7,0.3c-0.3-0.1-0.6-0.4-0.9-0.5C589.5,260.2,589.5,260.1,589.6,260L589.6,260z
	 M685.4,278.3l-16.2-0.9c-0.4-2.2-0.9-4.2-1.6-5.9c-0.2,0.1-0.4,0.2-0.7,0.2c0,0,0,0,0,0c0.3,0.3,0.6,0.6,1,1
	c-0.7-0.1-1.2-0.1-1.7-0.2c-0.1-0.2-0.1-0.5-0.3-1c0.4,0.1,0.7,0.1,1,0.2l0,0c0,0,0,0,0,0c-0.1-0.2-0.1-0.4-0.2-0.7
	c0,0,0.1-0.1,0.1-0.1l0.6,0.1c-2.4-5.6-6.6-9.1-12.6-10.6c-0.9-0.8-3.8-1.5-8.8-2.1v1.2l-4.6-1.1l-0.1-1.2l-2.7,1.3l-3.8-1h-0.9
	l-20.1,0.1l-9.2,0.3v4.9l-0.3,12.2l-0.3,1.9h-0.1h-1c-0.2,0-2.8,0-7.7-0.1c-0.7,0-1.5-0.1-2.4-0.1h-0.9l0.2-2.2l-0.5-0.5v-1l0.5-0.5
	h-0.5l0.5-2.6v-1.1l-0.5-0.5l1-3.6l-0.6-0.5v-3.4c-0.2-0.1-0.4-0.1-0.6-0.2l0.1-0.3c0.2,0,0.3,0.1,0.5,0.1v-1.9l-7.3-0.3
	c0,0.2,0,0.3,0.1,0.4c0.1,0.2,0.4,0.4,0.6,0.6c-0.2,0-0.5,0.1-0.5,0.1c-0.2,0.4-0.2,0.7-0.4,0.8c-0.5,0.1-0.4,0.4-0.4,0.7
	c0,0.4-0.1,0.9-0.1,1.4c1.1,0.8-0.6,0.9-0.6,1.5c-0.2-0.2-0.4-0.4-0.6-0.5c1.2-1.9,1.4-2.8,0-4.7c0.4,0,0.8-0.1,1-0.3l-2.3-0.1
	h-17.6l-0.6-0.5l-0.5,0.5l-3.2-0.5l-1.6,0.5l-1.6-0.5l-0.6,0.5h-0.5l-0.6-0.5v0.5l-2.7-0.5h-0.6l-0.6,0.5v-0.5l-1.5,0.5h-0.6
	l-0.6-0.5l-1.6,0.5v-0.5l-0.5,0.5l-2.7-0.5h-7.5l-0.5,0.5v0.5l0.5,0.5v0.6l-0.5,0.5l0.5,0.5v3.5l-0.5,0.5l0.5,0.5v0.5l-0.5,2.1v0.5
	l0.5,0.5l-0.5,1.6v0.5l0.5,0.5l-0.5,3.1l0,2.4l-6.3,0v0.2l0.5,2.6l-0.5,0.5l0.5,1.4l-0.5,0.5v9.7l0.5,2.6l-0.5,1.6v6.1l-0.6,0.5
	l0.6,0.5v1.5l-0.6,0.5l0.6,0.6v9.2l-0.6,2.6l0.6,0.5l-0.6,0.5v5.6l0.6,0.5h-0.6l0.6,5.6l-0.6,2.5l0.6,0.5h-0.6v0.5l0.6,0.5v1.1
	l-0.6,0.5h0.6v0.5l-0.6,0.5v1l1,1v-1h0.6c0,0.9,0.9,1.4,2.7,1.6v-0.5l2.7,0.5l1.6-0.5v0.5l1.6-0.5l2.2,0.5h0.6l0.5-0.5l0.6,0.5h1
	l0.6-0.5v0.5l0.5-0.5v-1.6c0,0,3.1,2.6,7,2.6v-0.5l2.7,0.5l3.2-1l4.8,0.5h7.5l5.3,0.5l0.6-0.5l2.2,0.5h6.9V327v-1v-7.1h-11.2
	l-3.7-0.6l-0.6,0.6l-7.5-0.6l-3,0.6c-3.5-0.4-5.3-0.9-5.3-1.6v-5.1l0.6-2.5l-0.6-0.5l6.3-1v0.6l2.1-0.6l0.3,0.6h3.2v-0.6l-0.6-0.5
	l2.6,1l0.6-0.6h1.6l0.6,0.6l0.5-0.6h0.6l0.6,0.6l1-1l1,1l2.2-1v0.5l2.7-1h0.6v0.5h-1.1v0.5l0.6,0.6l0.6-0.6l2.6,0.6v-1l2.2,1
	c0.7,0,1-0.9,1-2.6v-2.6h-0.1l-0.9-13.8h-0.5l0.5-1.5l-9.2,0.5c-0.4,0-2.1,0-3.9-0.1l-0.7,0c-2.5-0.1-5.1-0.1-5.3-0.1
	c-0.2,0-8.2-0.3-11.1-0.4l-0.5-0.7l1-7.8h1.6l3.2-0.5l-0.3,0.5l1.6-0.5v0.5h0.6l0.5-0.5h1l2.2,0.5l2.2-0.5h2.7l2.6,0.5l0.6-0.5
	l0.5,0.5h1.6l0.5-0.5c0,0,0,0,0,0v0.5l1.4-0.5c0.3,0,0.7,0,1.1,0l6.5,0.4l0.1-0.5l14.4,0.3l0.6,20l-0.5,14.1l0.1,0.8l0.1,2.5
	l0.4,4.2l0.2,5.8l0.1,1.6l0.4,4.2l0.2,7.5l24-0.1l-0.1-1.6l-0.9-0.8l0.9-0.1l-0.9-0.8l-0.1-0.9l0.2-13l-0.9,0.1
	c-0.3-3.3,0.1-5,1.3-5c4.4-0.1,7.9,3.7,10.6,11.4c2.6,6.6,5.6,10.2,9.1,10.5l22.9,0.3L667,339l-15.1-27.6c8.1-5.1,12.7-12,13.9-20.6
	c-0.1-0.2-0.1-0.4,0.1-0.6c0.3-2.4,0.3-4.9,0.1-7.5l-0.4-3.5l10.8-0.5h0.8c-0.1,0-0.3,0-0.4,0L685.4,278.3z"/>
</svg>
